# xmcd
#
# Track frame offsets: 
#        182
#        23980
#        40870
#        58002
#        81200
#        102377
#        128917
#        143537
#
# Disc length: 2097 seconds
#
# Revision: 2
# Processed by: cddbd v1.5.2PL0 Copyright (c) Steve Scherf et al.
# Submitted via: ExactAudioCopyFreeDBPlugin 1.0
#
DISCID=66082f08
DTITLE=Various Artist - Hot Biscuits HOBmc
DYEAR=1996
DGENRE=Blues
TTITLE0=Jimmy Rip - Cold Comfort
TTITLE1=The Gales Bros. - Hand Me Down
TTITLE2=Cissy Houston - I'm Somebody
TTITLE3=John Mooney - Sacred Ground
TTITLE4=Becky Barksdale - Satisfy Me
TTITLE5=Paul Black - Moo Goo
TTITLE6=The Blind Boys Of Alabama - Didn't It Rain
TTITLE7=Lightnin' Hopkins - Mojo Hand
EXTD=
EXTT0=Jimmy Rip\n
EXTT1=The Gale Bros.
EXTT2=Cissy Houston
EXTT3=John Mooney
EXTT4=Becky Barksdale
EXTT5=Paul Black
EXTT6=The Blind Boys of Alabama
EXTT7=Lightnin' Hopkins
PLAYORDER=
